<svg width="106" height="38" viewBox="0 0 106 38" fill="none" xmlns="http://www.w3.org/2000/svg">
<path d="M33.3699 18.1796C33.3699 27.5613 26.126 35.1713 17.185 35.1713C8.24382 35.1713 1 27.5613 1 18.1796C1 8.798 8.24382 1.18799 17.185 1.18799C26.126 1.18799 33.3699 8.798 33.3699 18.1796Z" fill="#B01919" stroke="#B01919"/>
<path d="M12.5293 8.52026C11.9553 9.93082 12.7959 10.7111 13.2879 10.925L17.3958 11.5779C19.0513 11.7786 21.7963 14.601 22.8947 16.3012C24.3968 18.6262 25.5534 25.0468 21.8857 25.7463C18.9516 26.306 16.7137 22.9527 15.7779 21.2081C14.4911 18.8094 14.0142 16.2552 12.9595 14.8776C9.98381 11.2255 4.78701 13.8729 3.97748 16.9535C2.56852 23.1123 5.79522 27.4833 7.17918 29.4422C8.67048 31.3937 12.4281 32.4336 14.1873 33.9965C15.5071 35.1693 14.8019 36.5212 15.0823 36.7612C16.0589 37.5972 17.6448 32.1565 13.4786 30.229C10.7381 28.9611 9.44785 25.1554 9.00268 23.4784C8.6758 20.1474 11.1305 19.2802 12.3214 20.4035C13.9643 22.4958 13.5155 21.8514 14.7128 23.624C15.5601 24.8783 15.88 25.117 16.9107 26.0097C19.2404 28.0274 22.0531 30.2641 25.5349 29.3473C29.0167 28.4304 31.0595 21.2523 30.2999 18.5297C29.2297 14.694 24.3814 11.5813 23.0179 10.157C20.525 7.55245 19.4518 4.87817 18.543 2.45274C18.0958 1.97071 18.0692 5.09879 18.0786 6.04936C17.8003 7.63212 14.5458 8.0587 12.5293 8.52026Z" fill="white" stroke="white"/>
<path d="M17.0829 8.14267C17.3813 8.03992 17.6603 7.99916 17.8676 8.01173C17.9717 8.01803 18.0498 8.03736 18.1016 8.06258C18.1533 8.08778 18.1644 8.11109 18.1671 8.11979C18.1697 8.1285 18.1734 8.15441 18.1452 8.20708C18.117 8.25985 18.0641 8.32429 17.983 8.39438C17.8216 8.53384 17.5729 8.67488 17.2744 8.77764C16.976 8.8804 16.697 8.92112 16.4898 8.90859C16.3856 8.90226 16.3075 8.88296 16.2557 8.85773C16.204 8.83254 16.1929 8.8092 16.1903 8.80052C16.1876 8.79181 16.1839 8.76591 16.2121 8.7132C16.2403 8.66044 16.2932 8.596 16.3743 8.52594C16.5357 8.38644 16.7845 8.24543 17.0829 8.14267Z" fill="#B01919" stroke="#B01919"/>
<path d="M46.0119 9.3647L45.2277 11.2037C45.2277 11.7368 40.2614 18.8223 40.2614 19.0851C40.2614 19.2952 40.0871 19.8734 40 20.1359C41.2547 20.1359 43.3109 17.6841 44.1822 16.4579V24.8647C44.1822 27.7622 43.6594 26.711 43.6594 27.4993C44.2867 29.6008 45.3148 30.1188 45.7505 30.1188L46.0119 14.0935L47.8416 11.4666C48.2598 11.4666 47.6673 9.89008 47.3188 9.10222C46.4824 8.05147 46.099 8.83932 46.0119 9.3647Z" fill="#B01919" stroke="#B01919"/>
<path d="M47.8408 15.6924L48.1022 17.5314L48.3636 25.6754C47.9454 26.0955 47.8408 26.9012 47.8408 27.2515L48.8864 28.0393C49.0955 28.4599 49.8448 27.8642 50.1933 27.514L57.2507 26.9886C57.669 27.8293 58.122 27.8642 58.2963 27.7768C58.819 28.5651 59.6032 19.6329 59.6032 19.37C59.6032 19.1076 59.8646 16.4803 60.126 16.4803C60.3351 16.4803 58.819 15.4295 58.0349 14.9042H57.5121C57.303 14.6941 57.5992 16.7432 57.7735 17.7939C58.0349 18.3043 57.5992 22.6978 57.2507 25.15L49.9319 25.6754V19.37C49.9319 18.9499 50.2804 17.6188 50.4547 17.0057L48.8864 15.6924C48.259 15.0618 47.9279 15.4295 47.8408 15.6924Z" fill="#B01919" stroke="#B01919"/>
<path d="M52.6279 16.6233C50.4551 11.2115 53.2361 9.11612 54.1146 9.10962C53.9889 11.474 53.2956 11.0559 53.9786 15.1931C54.1702 16.3535 54.6843 18.9247 54.9588 20.3489C55.3766 23.1631 54.3703 26.792 52.7877 26.2235C51.5745 25.1179 54.9409 22.3842 52.6279 16.6233Z" fill="#B01919" stroke="#B01919"/>
<path d="M70.9552 11.1906C71.1901 11.1906 70.8574 10.033 70.6617 9.45399C70.1921 8.3431 69.4876 8.52798 69.1941 8.75959L68.02 12.5794C68.02 12.9268 66.8458 10.8432 65.9652 10.8432H65.3782V11.5376L67.1393 13.9686L64.4976 17.0937L64.204 18.1355H65.0846L67.7264 15.7048C68.196 16.5382 65.5739 20.9135 64.2041 22.6497C63.4996 23.761 63.5192 24.2701 63.617 24.3859H64.4976C65.6717 23.8305 67.7264 20.6819 68.607 19.1773C68.8419 19.4548 68.3135 23.9231 68.02 26.1221L66.5523 24.7333H65.6717C65.6717 26.1221 66.5523 27.5114 68.3135 28.9002C70.9552 26.4695 69.879 17.2095 68.9005 13.9686C69.4876 13.0426 70.7204 11.1906 70.9552 11.1906Z" fill="#B01919" stroke="#B01919"/>
<path d="M71.5424 10.1492L72.423 10.4966L73.3036 11.8855L78 9.45483C78.6849 9.80224 79.996 10.5661 79.7614 10.844C79.111 11.3934 77.843 12.3393 77.7168 11.9578C78.4063 16.841 79.8812 26.2575 80.3483 25.4282C80.8375 25.7756 81.8745 26.47 82.1094 26.47C82.3052 26.8174 83.0487 27.4057 82.1094 27.6833L79.7116 27.8592C79.4182 27.6276 79.3684 27.1603 78.8313 25.6001L78.0714 24.0394C78.1455 25.197 77.9999 28.2062 76.826 27.1644L76.5325 25.4282L76.0188 25.8625L75.5051 26.2965L74.4777 27.1644C73.5971 26.8174 73.3623 26.5395 73.5971 25.4282L74.1842 24.3868V12.9273L73.3036 13.2747C73.5971 17.2099 73.4797 25.7061 70.6618 28.2062C70.3683 28.4378 69.7812 28.6231 69.7812 27.5118C70.564 25.7756 72.0708 21.9557 71.836 20.5669V13.2747L71.5424 11.5385V10.1492Z" fill="#B01919"/>
<path d="M78.0714 24.0394C77.7285 23.169 75.8128 22.0118 75.6023 22.4746C75.5384 20.0684 75.5942 15.9393 75.6519 13.6217C75.8867 13.6217 75.554 13.1589 75.3583 12.9273L76.2389 12.5803L78.0714 24.0394ZM78.0714 24.0394L78.8313 25.6001C79.3684 27.1603 79.4182 27.6276 79.7116 27.8592L82.1094 27.6833C83.0487 27.4057 82.3052 26.8174 82.1094 26.47C81.8745 26.47 80.8375 25.7756 80.3483 25.4282C79.8785 26.2615 78.3915 16.7471 77.7065 11.8855C77.7065 12.4413 79.0764 11.4227 79.7614 10.844C79.996 10.5661 78.6849 9.80224 78 9.45483L73.3036 11.8855L72.423 10.4966L71.5424 10.1492V11.5385L71.836 13.2747V20.5669C72.0708 21.9557 70.564 25.7756 69.7812 27.5118C69.7812 28.6231 70.3683 28.4378 70.6618 28.2062C73.4797 25.7061 73.5971 17.2099 73.3036 13.2747L74.1842 12.9273V24.3868L73.5971 25.4282C73.3623 26.5395 73.5971 26.8174 74.4777 27.1644L75.5051 26.2965L76.0188 25.8625L76.5325 25.4282L76.826 27.1644C77.9999 28.2062 78.1455 25.197 78.0714 24.0394Z" stroke="#B01919"/>
<path d="M76.19 12.7515L75.8965 13.1521V21.9669C76.4835 21.9669 77.1684 22.3675 77.6577 23.1688L76.19 12.7515Z" fill="white" stroke="#B01919" stroke-width="0.5"/>
<path d="M76.1952 24.5535L76.1829 24.5881L76.1821 24.6214C76.1821 24.6226 76.1818 24.6246 76.1815 24.6279C76.1804 24.6364 76.1781 24.6514 76.1732 24.6717C76.1635 24.7123 76.1434 24.7737 76.102 24.8452C76.0219 24.9833 75.8511 25.1782 75.4795 25.3265C75.4665 25.3301 75.4537 25.3334 75.4412 25.337C75.3641 25.3586 75.2968 25.3772 75.2353 25.3902C75.1696 25.404 75.1287 25.4065 75.1053 25.404C75.1036 25.385 75.1036 25.348 75.115 25.2838C75.4236 24.6453 75.5059 23.9215 75.5348 23.3618C75.6077 23.4252 75.6974 23.5231 75.7907 23.6462C75.9202 23.8172 76.0416 24.0178 76.1189 24.2002C76.1576 24.2916 76.1827 24.372 76.194 24.4382C76.2057 24.5068 76.1994 24.5418 76.1952 24.5535ZM75.4238 23.2859C75.4238 23.2859 75.4238 23.2859 75.4238 23.2859V23.2859Z" fill="white"/>
<path d="M75.5427 23.199C75.5427 23.199 75.5427 23.1994 75.5425 23.2002M76.1952 24.5535L76.1829 24.5881L76.1821 24.6214C76.1821 24.6226 76.1818 24.6246 76.1815 24.6279C76.1804 24.6364 76.1781 24.6514 76.1732 24.6717C76.1635 24.7123 76.1434 24.7737 76.102 24.8452C76.0219 24.9833 75.8511 25.1782 75.4795 25.3265C75.4665 25.3301 75.4537 25.3334 75.4412 25.337C75.3641 25.3586 75.2968 25.3772 75.2353 25.3902C75.1696 25.404 75.1287 25.4065 75.1053 25.404C75.1036 25.385 75.1036 25.348 75.115 25.2838C75.4236 24.6453 75.5059 23.9215 75.5348 23.3618C75.6077 23.4252 75.6974 23.5231 75.7907 23.6462C75.9202 23.8172 76.0416 24.0178 76.1189 24.2002C76.1576 24.2916 76.1827 24.372 76.194 24.4382C76.2057 24.5068 76.1994 24.5418 76.1952 24.5535ZM75.4238 23.2859C75.4238 23.2859 75.4238 23.2859 75.4238 23.2859Z" stroke="white"/>
<path d="M86.6942 12.6213L92.0965 12.2795C91.9904 11.4831 91.7787 10.2317 91.4609 9.54865L91.7787 8.86562H92.4143C92.732 9.20734 93.3676 9.54905 93.6854 9.88996C94.0032 10.2317 93.9595 10.8139 93.6854 11.2556C93.4733 11.5969 93.1768 12.2795 93.6854 12.2795C94.1936 12.2795 96.4394 12.052 97.4988 11.9382C97.4988 11.1418 97.4501 10.0249 97.2566 9.61C96.9388 8.92698 97.5109 8.10742 98.5277 8.92698L99.7232 9.88996C99.6194 10.4462 99.3537 11.5469 99.1044 11.5953L102.583 11.2556C103.113 11.3694 104.172 11.7339 104.172 12.2799C104.066 12.735 104.172 12.9626 102.901 12.9626L98.7699 13.3043L97.8165 15.6939H97.181L96.8632 15.3526L97.181 13.3043L93.6854 13.6456V15.3526L93.0498 16.0352C92.4143 15.4663 91.2701 14.1917 91.7787 13.6456L87.6475 13.9869C87.2237 13.8731 86.4399 13.4404 86.6942 12.6213Z" fill="#B01919"/>
<path d="M86.6942 12.6213L92.0965 12.2795C91.9904 11.4831 91.7787 10.2317 91.4609 9.54865L91.7787 8.86562H92.4143C92.732 9.20734 93.3676 9.54905 93.6854 9.88996C94.0032 10.2317 93.9595 10.8139 93.6854 11.2556C93.4733 11.5969 93.1768 12.2795 93.6854 12.2795C94.1936 12.2795 96.4394 12.052 97.4988 11.9382C97.4988 11.1418 97.4501 10.0249 97.2566 9.61C96.9388 8.92698 97.5109 8.10742 98.5277 8.92698L99.7232 9.88996C99.6172 10.4588 99.3416 11.5969 99.0877 11.5969L102.583 11.2556C103.113 11.3694 104.172 11.7339 104.172 12.2799C104.066 12.735 104.172 12.9626 102.901 12.9626L98.7699 13.3043L97.8165 15.6939H97.181L96.8632 15.3526L97.181 13.3043L93.6854 13.6456V15.3526L93.0498 16.0352C92.4143 15.4663 91.2701 14.1917 91.7787 13.6456L87.6475 13.9869C87.2237 13.8731 86.4399 13.4404 86.6942 12.6213Z" stroke="#B01919"/>
<path d="M90.5065 18.7667C92.7309 17.4015 94.5741 14.7299 95.2097 13.7056C96.4173 15.1309 96.2691 15.4125 96.163 15.7538L98.7053 17.8025C101.248 20.2604 103.366 20.5878 104.108 20.4741C105.124 20.4741 105.092 21.3842 104.88 21.8397L101.248 22.2408C100.993 22.2408 97.3281 18.5989 95.5275 16.7782C95.2732 17.3243 92.3071 19.336 90.8242 20.4741C90.3156 21.0202 88.0699 22.0673 87.0109 22.5223L86.0575 22.8637C85.8032 22.8637 86.3753 21.9535 86.6931 21.498L90.5065 18.7667Z" fill="#B01919" stroke="#B01919"/>
<path d="M94.5748 20.1916L91.0793 20.5333C90.5707 21.3525 91.291 22.0127 91.7148 22.2403L94.5748 21.899V26.6785L93.3037 25.3129H92.6682L92.3504 26.3372L93.1448 27.3611L93.9393 28.3855C95.5282 29.7511 95.846 28.0442 96.1637 27.3611V21.899L98.3882 21.5572C99.1507 21.5572 99.6593 21.2159 99.6593 20.8746L98.3882 19.8503C97.6466 19.964 96.1003 20.1916 95.846 20.1916C95.5917 20.1916 95.952 19.509 96.1637 19.1677C96.9263 18.8946 95.4221 17.9158 94.5748 17.4607C94.8926 17.6387 94.0453 18.1433 93.9393 18.4846C94.1936 18.7581 94.4688 19.7365 94.5748 20.1916Z" fill="#B01919" stroke="#B01919"/>
<path d="M93.3038 24.6298C93.6216 23.9471 93.5882 23.1922 93.3038 22.5815C92.986 21.8989 92.6679 21.5576 91.3971 23.2641C90.1264 24.9707 89.5965 25.4262 88.5383 26.3359L88.5371 26.3371C87.5838 27.3611 88.5371 27.7028 89.1727 27.3611C92.3505 26.3371 91.9266 25.7679 93.3038 24.6298Z" fill="#B01919" stroke="#B01919"/>
<path d="M98.0705 22.9232C96.799 22.5819 96.1634 22.5815 96.7994 23.6059L98.706 25.3128L100.295 27.0202C101.884 26.6785 101.46 25.4266 101.248 24.6302C100.74 24.0841 99.0238 23.2645 98.0705 22.9232Z" fill="#B01919" stroke="#B01919"/>
</svg>
