<svg width="50" height="30" viewBox="0 0 50 30" fill="none" xmlns="http://www.w3.org/2000/svg">
<rect width="50" height="30" rx="5" fill="#B01919"/>
<path d="M33.9219 16.4119L35.9737 6.87343C36.1218 6.18474 35.6263 5.52892 34.9579 5.52892H17.9101L17.5122 3.47401C17.4131 2.96182 16.9865 2.59399 16.4917 2.59399H12.0417C11.4664 2.59399 11 3.08674 11 3.69459V4.42832C11 5.03617 11.4664 5.52892 12.0417 5.52892H15.0748L18.1237 21.2782C17.3943 21.7214 16.9028 22.5525 16.9028 23.5053C16.9028 24.9236 17.991 26.0734 19.3333 26.0734C20.6757 26.0734 21.7639 24.9236 21.7639 23.5053C21.7639 22.7865 21.4841 22.1371 21.0337 21.671H30.1329C29.6826 22.1371 29.4028 22.7865 29.4028 23.5053C29.4028 24.9236 30.491 26.0734 31.8333 26.0734C33.1757 26.0734 34.2639 24.9236 34.2639 23.5053C34.2639 22.4886 33.7045 21.6099 32.8933 21.1938L33.1327 20.0806C33.2809 19.3919 32.7854 18.7361 32.117 18.7361H20.4669L20.1828 17.2686H32.9061C33.3925 17.2686 33.8141 16.913 33.9219 16.4119Z" fill="white"/>
</svg>
